<svg xmlns="http://www.w3.org/2000/svg" width="1000" height="1000" viewBox="0 0 1000 1000"><defs><style>.a{fill:#fff;}.b{fill:#1eb168;}</style></defs><title>Prepack Logo Alt</title><rect class="a" x="202.29" y="202.29" width="595.42" height="595.42" rx="167.65" ry="167.65"/><path class="b" d="M583.4,499.91,487.82,354.38H345.54l95.7,145.71L324.17,674.15H289.78L407,499.91,292.66,325.85H503.22Q560.43,413,617.66,500.09Z"/><path class="b" d="M501.17,499.91m0,0-95.7,145.71H604.81c31.86-48.51,95.58-145.71,95.58-145.71l34.26.18s-76.29,116-114.44,174.06H352.59L466.91,500.09Z"/><path class="b" d="M524,499.91,409.66,325.85H620.21L734.65,500.09l-34.26-.18L604.81,354.38H462.53l95.71,145.71Z"/><path class="b" d="M582.38,354.38,678.08,500l-34.26-.09L529.5,325.85"/></svg>