<svg xmlns="http://www.w3.org/2000/svg" width="1000" height="1000" viewBox="0 0 1000 1000"><defs><style>.a{fill:#fff;}.b{fill:#1eb168;}</style></defs><title>Prepack Logo with Text Alt</title><rect class="a" x="59.78" y="390.41" width="220.2" height="220.2" rx="62" ry="62"/><path class="b" d="M200.72,500.47l-35.35-53.82H112.75l35.4,53.89-43.3,64.37H92.13l43.35-64.44L93.2,436.1h77.87q21.15,32.22,42.32,64.44Z"/><path class="b" d="M170.31,500.47m0,0-35.4,53.89h73.73C220.42,536.42,244,500.47,244,500.47l12.68.07s-28.22,42.89-42.33,64.37h-99l42.28-64.37Z"/><path class="b" d="M178.74,500.47,136.46,436.1h77.87l42.33,64.44L244,500.47l-35.34-53.82H156l35.39,53.89Z"/><path class="b" d="M200.34,446.65l35.39,53.86-12.67,0L180.79,436.1"/><path class="a" d="M326.41,435H376.9c25.43,0,48.47,11.16,48.47,39.88,0,31.64-21.22,42.8-48.29,42.8h-24v46.46H326.41Zm46.47,61.46c14.26,0,24-4.94,24-21.58,0-14.46-11-19.58-24.15-19.58H353.12v41.16Z"/><path class="a" d="M432.1,472.31h22.14l1.82,18.11c5.49-11.89,15.92-20.85,32.2-20.85V495a41.1,41.1,0,0,0-8.05-.74c-10.61,0-23.23,4.39-23.23,26.53v43.35H432.1Z"/><path class="a" d="M514.82,524.08c1.83,17,10.43,24.33,22.32,24.33,9,0,15.36-4,19.93-12.26l18.48,10.43c-8.42,13.35-22.32,20.49-39.7,20.49-30.36,0-46.46-21.22-46.46-48.48,0-27.62,16.28-49,45-49,27.81,0,42.81,20.49,42.81,49.21,0,3.11-.19,4.57-.19,5.3Zm0-14.27H552c0-11.52-5.49-21.95-18.11-21.95C522.5,487.86,516.28,496.09,514.82,509.81Z"/><path class="a" d="M586.28,472.31H611V486.4c4.39-9.15,12.8-16.83,26.89-16.83,21.77,0,34.75,17.93,34.75,47.93,0,35.85-18.65,48.84-36.58,48.84-10.79,0-20.85-4.94-24.88-13V596H586.28ZM611,520.06c0,14.45,6.22,26.52,18.11,26.52,11.16,0,17.56-10.61,17.56-28.17,0-16.83-5.67-28.35-18.11-28.35-12.62,0-17.56,12.44-17.56,26Z"/><path class="a" d="M736.68,564.14c-1.46-3.29-2.38-8.6-2.74-13-3.84,9-12.81,15.92-26.89,15.92-18.84,0-29.82-12.26-29.82-29.27,0-18.84,14.09-26.34,34.94-29.45l20.3-3.11v-3.48c0-10.79-5.85-13.17-14.08-13.17-12.26,0-20.49,5.31-26.71,11.71l-11.89-16.46c7.5-7.32,21.59-14.27,41.71-14.27,25.61,0,36,11,36,34V538c0,13.9.36,18.66,3.47,26.16ZM732.47,521l-15.91,2.93c-11,2-15.55,5.85-15.55,13,0,7,4.57,12.44,12.44,12.44,10.43,0,19-8.59,19-22.31Z"/><path class="a" d="M851.83,544.57c-8.41,15.36-22.32,22.5-40.24,22.5-31.47,0-45.19-21.59-45.19-48.48,0-29.08,16.28-49,45.19-49,18.65,0,31.28,8.23,39.69,23.05l-20.67,10.06c-3.84-9.7-10.24-14.09-18.29-14.09-14.09,0-20.12,12.26-20.12,28.54,0,14.27,4.75,30.73,21.58,30.73,9.7,0,15.73-5.49,19.39-14.45Z"/><path class="a" d="M857.83,435H882.7v74.45l34.58-37.14h30.54l-36.21,34.76,37.86,57.07H920.93l-25.06-41.71L882.7,535.06v29.08H857.83Z"/></svg>